PathFileType	4	(X/Y/Z)	/Users/itak/Documents/Research/Walk-IL/dataset/trc/00106_00007.trc
DataRate	CameraRate	NumFrames	NumMarkers	Units	OrigDataRate	OrigDataStartFrame	OrigNumFrames
100.000000	100.000000	4	53	mm	100.000000	131	527
Frame#	Time	RPSI			LPSI			L3			STRN			T10			C7			CLAV			RBAK			LBAK			LSHO			LUPA			LAEL			LAOL			LWTS			LWPS			LFRA			LIFD			LHPS			LHTS			RSHO			RUPA			RAEL			RAOL			RWTS			RWPS			RFRA			RIFD			RHTS			RHPS			RBHD			LFHD			RFHD			LBHD			LHIP			RHIP			RASI			LASI			LKNE			LTHI			LANK			LTIP			LTOE			LMT1			LMT5			LHEE			RKNE			RTHI			RANK			RTIP			RTOE			RMT1			RMT5			RHEE			
		X1	Y1	Z1	X2	Y2	Z2	X3	Y3	Z3	X4	Y4	Z4	X5	Y5	Z5	X6	Y6	Z6	X7	Y7	Z7	X8	Y8	Z8	X9	Y9	Z9	X10	Y10	Z10	X11	Y11	Z11	X12	Y12	Z12	X13	Y13	Z13	X14	Y14	Z14	X15	Y15	Z15	X16	Y16	Z16	X17	Y17	Z17	X18	Y18	Z18	X19	Y19	Z19	X20	Y20	Z20	X21	Y21	Z21	X22	Y22	Z22	X23	Y23	Z23	X24	Y24	Z24	X25	Y25	Z25	X26	Y26	Z26	X27	Y27	Z27	X28	Y28	Z28	X29	Y29	Z29	X30	Y30	Z30	X31	Y31	Z31	X32	Y32	Z32	X33	Y33	Z33	X34	Y34	Z34	X35	Y35	Z35	X36	Y36	Z36	X37	Y37	Z37	X38	Y38	Z38	X39	Y39	Z39	X40	Y40	Z40	X41	Y41	Z41	X42	Y42	Z42	X43	Y43	Z43	X44	Y44	Z44	X45	Y45	Z45	X46	Y46	Z46	X47	Y47	Z47	X48	Y48	Z48	X49	Y49	Z49	X50	Y50	Z50	X51	Y51	Z51	X52	Y52	Z52	X53	Y53	Z53	

132	1.31	-1676.638061523438	1124.954345703125	-207.5686950683594	-1694.638305664062	1130.099609375	-341.6484680175781	-1691.127075195312	1162.353515625	-276.0078125	-1469.398193359375	1355.889892578125	-299.26025390625	-1723.770874023438	1315.135375976562	-271.0383911132812	-1676.645263671875	1605.830932617188	-287.4736022949219	-1498.345703125	1492.77978515625	-297.4145812988281	-1728.794067382812	1422.850341796875	-196.0132446289062	-1694.458618164062	1587.259399414062	-388.5562438964844	-1614.652587890625	1570.4072265625	-464.8422241210938	-1645.733032226562	1440.026000976562	-533.8414916992188	-1639.668334960938	1219.173461914062	-556.1749267578125	-1700.87890625	1208.90673828125	-494.1932373046875	-1544.435668945312	958.5926513671875	-519.9816284179688	-1628.476684570312	935.5964965820312	-540.8603515625	-1627.139038085938	1102.694946289062	-561.08203125	-1539.48486328125	765.0588989257812	-497.2213439941406	-1602.013427734375	859.6475830078125	-543.6298828125	-1533.533935546875	868.6674194335938	-533.8750610351562	-1605.113037109375	1583.078247070312	-112.2126159667969	-1619.44140625	1510.537963867188	-47.57102203369141	-1641.968872070312	1215.461791992188	-27.70455932617188	-1650.556518554688	1214.102416992188	-124.5364227294922	-1487.838012695312	979.0313110351562	-44.70536422729492	-1561.887817382812	957.9297485351562	-11.84814929962158	-1616.762451171875	1142.01171875	-12.85090637207031	-1458.436767578125	786.0669555664062	-69.20887756347656	-1454.487060546875	871.0980834960938	-41.71366882324219	-1522.111450195312	859.7396240234375	-9.298895835876465	-1619.24853515625	1767.862182617188	-203.6262359619141	-1469.286376953125	1843.5693359375	-347.8164367675781	-1454.611328125	1835.499877929688	-218.6397705078125	-1640.8359375	1780.428100585938	-337.0691528320312	-1618.99462890625	1040.239379882812	-460.9552001953125	-1537.7724609375	1024.27197265625	-109.6154479980469	-1462.592163085938	1097.045043945312	-171.2794952392578	-1503.761596679688	1103.544799804688	-434.2801513671875	-1582.722412109375	537.00537109375	-441.2949829101562	-1609.139404296875	683.1925659179688	-466.2515563964844	-1700.2119140625	34.86708831787109	-430.326416015625	-1686.45361328125	290.7312622070312	-462.7519836425781	-1470.051391601562	39.77438354492188	-375.314208984375	-1549.681030273438	43.04613876342773	-340.59375	-1574.284912109375	32.65396881103516	-457.5133972167969	-1767.87353515625	36.28459930419922	-365.839599609375	-1536.425537109375	531.5654296875	-159.3358764648438	-1514.0068359375	810.5101928710938	-122.7794189453125	-1680.180297851562	30.36038398742676	-168.9112243652344	-1569.435302734375	397.43017578125	-147.2400512695312	-1450.841430664062	45.54673004150391	-221.809326171875	-1510.31103515625	30.25869369506836	-263.8059692382812	-1547.094604492188	41.11350631713867	-149.4441070556641	-1738.260986328125	31.32928466796875	-217.3807830810547	
133	1.32	-1675.918823242188	1124.88525390625	-206.8123016357422	-1693.305908203125	1130.0859375	-340.9700317382812	-1690.051879882812	1162.386108398438	-275.3642272949219	-1468.108276367188	1355.636962890625	-297.7061462402344	-1722.734008789062	1315.244995117188	-270.7859802246094	-1675.18017578125	1605.770263671875	-287.4301147460938	-1497.257080078125	1492.46728515625	-296.1033020019531	-1728.091918945312	1422.940307617188	-196.1826019287109	-1692.380737304688	1587.166870117188	-388.6385803222656	-1612.087158203125	1570.187744140625	-464.3720092773438	-1642.7998046875	1439.81640625	-533.5521850585938	-1636.707275390625	1219.020141601562	-555.931396484375	-1698.381591796875	1208.725463867188	-494.3995971679688	-1541.476440429688	958.5704956054688	-519.1961059570312	-1625.328247070312	935.4382934570312	-540.5993041992188	-1624.080810546875	1102.544921875	-560.8076782226562	-1536.470458984375	764.9894409179688	-496.4146728515625	-1598.745849609375	859.531982421875	-543.2045288085938	-1530.356201171875	868.6792602539062	-533.1136474609375	-1604.841552734375	1583.106567382812	-111.6882019042969	-1619.655151367188	1510.574462890625	-47.10733413696289	-1642.591918945312	1215.487060546875	-27.5579776763916	-1650.588623046875	1214.209716796875	-124.5088424682617	-1489.287963867188	978.4415283203125	-43.76700592041016	-1563.593872070312	957.6910400390625	-11.31123542785645	-1617.734252929688	1141.977783203125	-12.59402561187744	-1460.640258789062	785.3887329101562	-68.16300964355469	-1456.402954101562	870.3917236328125	-40.56439590454102	-1524.230224609375	859.3329467773438	-8.582947731018066	-1619.3662109375	1769.0517578125	-205.0090026855469	-1465.801147460938	1842.173828125	-346.5188293457031	-1454.0419921875	1835.44140625	-217.0047912597656	-1638.022827148438	1780.289428710938	-338.9809875488281	-1617.368041992188	1040.184448242188	-460.0105895996094	-1537.529663085938	1024.0791015625	-108.2263870239258	-1462.09521484375	1096.898681640625	-169.6187286376953	-1501.958129882812	1103.38427734375	-432.7926940917969	-1581.883666992188	536.8825073242188	-440.6660461425781	-1608.069702148438	683.181396484375	-465.538330078125	-1700.207275390625	34.84439468383789	-430.3623657226562	-1686.165283203125	290.8487243652344	-462.4468688964844	-1470.081176757812	39.82480621337891	-375.3639221191406	-1549.706176757812	43.09246063232422	-340.6121520996094	-1574.257690429688	32.59230422973633	-457.5612182617188	-1767.893310546875	36.36481094360352	-365.8897094726562	-1535.876342773438	531.3483276367188	-158.7185668945312	-1513.642578125	810.2620849609375	-121.6270370483398	-1680.20947265625	30.31878662109375	-168.8780364990234	-1569.028686523438	397.2075805664062	-146.7432556152344	-1450.854736328125	45.54714202880859	-221.7899017333984	-1510.294677734375	30.31748580932617	-263.7478332519531	-1547.122680664062	41.05268478393555	-149.3696594238281	-1738.299438476562	31.31614685058594	-217.3421478271484	
134	1.33	-1675.172973632812	1124.833374023438	-206.0189666748047	-1691.9404296875	1130.079223632812	-340.2532653808594	-1688.944458007812	1162.424072265625	-274.680908203125	-1466.723022460938	1355.382080078125	-296.0976867675781	-1721.573364257812	1315.368896484375	-270.4935913085938	-1673.609497070312	1605.727172851562	-287.3199157714844	-1496.063354492188	1492.162719726562	-294.7366638183594	-1727.30419921875	1423.05810546875	-196.2751922607422	-1690.208862304688	1587.084594726562	-388.6419067382812	-1609.443969726562	1569.98046875	-463.8284912109375	-1639.794921875	1439.620727539062	-533.1802368164062	-1633.685913085938	1218.882202148438	-555.6270141601562	-1695.821044921875	1208.557739257812	-494.5490112304688	-1538.458618164062	958.561767578125	-518.35986328125	-1622.119018554688	935.2965087890625	-540.2949829101562	-1620.95751953125	1102.4111328125	-560.48095703125	-1533.384765625	764.9298706054688	-495.5686950683594	-1595.41748046875	859.433837890625	-542.7385864257812	-1527.116088867188	868.697509765625	-532.2755126953125	-1604.470092773438	1583.140258789062	-111.1039199829102	-1619.772216796875	1510.624267578125	-46.58738708496094	-1643.148803710938	1215.5205078125	-27.36148834228516	-1650.547241210938	1214.333862304688	-124.4178695678711	-1490.745727539062	977.8287963867188	-42.77648162841797	-1565.287963867188	957.4572143554688	-10.72301959991455	-1618.642944335938	1141.953125	-12.27714157104492	-1462.891357421875	784.685302734375	-67.08441162109375	-1458.333740234375	869.6298217773438	-39.39383316040039	-1526.37646484375	858.916015625	-7.821998119354248	-1619.251953125	1770.120971679688	-206.2649993896484	-1462.423217773438	1840.893188476562	-345.1921081542969	-1453.383666992188	1835.443725585938	-215.4332885742188	-1635.166748046875	1780.074829101562	-340.6655578613281	-1615.74267578125	1040.1298828125	-459.0284118652344	-1537.26611328125	1023.910766601562	-106.7661285400391	-1461.58642578125	1096.75537109375	-167.9040374755859	-1500.140502929688	1103.229370117188	-431.2287902832031	-1580.844360351562	536.7451171875	-439.95556640625	-1606.827026367188	683.1495361328125	-464.7536926269531	-1700.197021484375	34.84190368652344	-430.3886413574219	-1685.773681640625	290.9596862792969	-462.091552734375	-1470.097778320312	39.86178970336914	-375.413818359375	-1549.724731445312	43.12682723999023	-340.62451171875	-1574.226928710938	32.53996658325195	-457.6014709472656	-1767.899169921875	36.44477844238281	-365.9277648925781	-1535.427490234375	531.1473388671875	-158.0449066162109	-1513.340942382812	810.014404296875	-120.4144668579102	-1680.242919921875	30.26752281188965	-168.8356170654297	-1568.713623046875	396.99267578125	-146.1900177001953	-1450.87353515625	45.54239654541016	-221.7720489501953	-1510.284301757812	30.38241386413574	-263.6920471191406	-1547.154296875	40.97547912597656	-149.2901916503906	-1738.346313476562	31.29898643493652	-217.2898254394531	
135	1.34	-1674.409057617188	1124.79443359375	-205.1923522949219	-1690.546875	1130.0732421875	-339.5032043457031	-1687.810546875	1162.465209960938	-273.9621887207031	-1465.245971679688	1355.126953125	-294.438232421875	-1720.319702148438	1315.504272460938	-270.1623840332031	-1671.928955078125	1605.703369140625	-287.1387329101562	-1494.73388671875	1491.875854492188	-293.3202514648438	-1726.432983398438	1423.199340820312	-196.2819976806641	-1687.9443359375	1587.017333984375	-388.5607604980469	-1606.729125976562	1569.781494140625	-463.2108764648438	-1636.72802734375	1439.437377929688	-532.7261352539062	-1630.612548828125	1218.756591796875	-555.2589721679688	-1693.201538085938	1208.400512695312	-494.6365661621094	-1535.383911132812	958.5606079101562	-517.47314453125	-1618.856567382812	935.1698608398438	-539.9450073242188	-1617.775146484375	1102.290893554688	-560.0972900390625	-1530.23193359375	764.87890625	-494.6869506835938	-1592.034912109375	859.3507690429688	-542.2310180664062	-1523.817504882812	868.7127075195312	-531.3372802734375	-1603.983276367188	1583.176879882812	-110.459114074707	-1619.771606445312	1510.684326171875	-46.0112190246582	-1643.624145507812	1215.563598632812	-27.10096549987793	-1650.43212890625	1214.472778320312	-124.2454681396484	-1492.193237304688	977.19921875	-41.73313522338867	-1566.944091796875	957.2288208007812	-10.07868194580078	-1619.471069335938	1141.937255859375	-11.89020252227783	-1465.15576171875	783.9613647460938	-65.97502136230469	-1460.253540039062	868.8287353515625	-38.20517349243164	-1528.518310546875	858.4930419921875	-7.012835025787354	-1618.90869140625	1771.068359375	-207.3646697998047	-1459.153564453125	1839.724365234375	-343.8522338867188	-1452.6240234375	1835.494506835938	-213.9275970458984	-1632.282348632812	1779.793701171875	-342.1082458496094	-1614.084594726562	1040.072509765625	-458.0070190429688	-1536.9853515625	1023.765991210938	-105.2363967895508	-1461.069458007812	1096.615478515625	-166.1383819580078	-1498.305297851562	1103.070678710938	-429.6029663085938	-1579.585815429688	536.5892944335938	-439.1674194335938	-1605.394653320312	683.0921630859375	-463.8958129882812	-1700.1806640625	34.86125183105469	-430.4043579101562	-1685.256225585938	291.0647583007812	-461.6902465820312	-1470.100463867188	39.88343811035156	-375.4620361328125	-1549.734619140625	43.1490364074707	-340.6307678222656	-1574.192504882812	32.49768829345703	-457.6338195800781	-1767.88916015625	36.52288818359375	-365.9502563476562	-1535.077758789062	530.9693603515625	-157.3218841552734	-1513.109985351562	809.7616577148438	-119.156494140625	-1680.280151367188	30.20690155029297	-168.7846984863281	-1568.482666015625	396.7861022949219	-145.5870666503906	-1450.896484375	45.53481292724609	-221.7601013183594	-1510.282348632812	30.45171546936035	-263.6451416015625	-1547.188354492188	40.88751983642578	-149.2122192382812	-1738.400756835938	31.27743530273438	-217.2234497070312	
